<svg xmlns="http://www.w3.org/2000/svg" viewBox="0 0 16 16"><style>.st0{fill:#EFEFEF;} .st1{opacity:0.65;fill:#FFFFFF;enable-background:new ;} .st2{opacity:0.2;enable-background:new ;} .st3{fill:#3AB29E;}</style><path class="st0" d="M0 .2v13.5h9.1l4.4 2.2v-2.2H16V3.2l-3.2-3H0z"/><path class="st1" d="M12.4 4V.4L16 4h-3.6z"/><path class="st2" d="M15.2 4v3.8l-3-3.8h3z"/><path class="st3" d="M12.6 12.9v1.7l-3.4-1.7H.8V1.1h11.4v3h2.9v8.8h-2.5zm.5-11.3l1.7 1.6h-1.7V1.6zM12.8.2H0v13.5h9.1l4.4 2.2v-2.2H16V3.2l-3.2-3z"/><path class="st3" d="M2.6 4h7.6v.8H2.6zM2.6 6.2h9.6V7H2.6zM2.6 8.3h9.6v.8H2.6z"/></svg>
