<svg xmlns="http://www.w3.org/2000/svg" viewBox="0 0 16 16"><style>.st0{fill:#EFEFEF;} .st1{opacity:0.65;fill:#FFFFFF;enable-background:new ;} .st2{opacity:0.1;enable-background:new ;} .st3{fill:#8EB2AC;}</style><path class="st0" d="M0 0v10h6.8l3.3 1.6V10H12V2.2L9.5 0H0z"/><path class="st1" d="M9.2 2.8V.1l2.7 2.7H9.2z"/><path class="st2" d="M11.3 2.8v2.8L9.1 2.8h2.2z"/><path class="st3" d="M9.4 9.4v1.3L6.8 9.4H.6V.7h8.5v2.2h2.2v6.5H9.4zM9.7 1L11 2.2H9.7V1zm-.2-1H0v10h6.8l3.3 1.6V10H12V2.2L9.5 0z"/><path class="st3" d="M2.2 2.6h5.6v.6H2.2zM2.2 4.2h7.1v.6H2.2zM2.2 5.8h7.1v.6H2.2z"/><g><path class="st0" d="M4.1 3.9v10h6.8l3.3 1.6v-1.6H16V6.1l-2.4-2.2H4.1z"/><path class="st1" d="M13.3 6.7V4L16 6.7h-2.7z"/><path class="st2" d="M15.4 6.7v2.8l-2.2-2.8h2.2z"/><path class="st3" d="M13.5 13.3v1.3L11 13.3H4.7V4.6h8.5v2.2h2.2v6.5h-1.9zm.3-8.4l1.3 1.2h-1.3V4.9zm-.2-1H4.1v10h6.8l3.3 1.6v-1.6H16V6.1l-2.4-2.2z"/><path class="st3" d="M6.3 6.5h5.6v.6H6.3zM6.3 8.1h7.1v.6H6.3zM6.3 9.6h7.1v.6H6.3z"/></g></svg>
