<svg xmlns="http://www.w3.org/2000/svg" viewBox="0 0 16 16"><style>.st0{fill:#FFFFFF;} .st1{fill:#EFEFEF;} .st2{opacity:0.65;fill:#FFFFFF;enable-background:new ;} .st3{opacity:0.2;enable-background:new ;} .st4{fill:#3AB29E;} .st5{fill:#999999;} .st6{fill:#0F3568;} .st7{fill:#F1C94D;} .st8{fill:#ECBA43;} .st9{fill:#002E53;}</style><path class="st0" d="M1 1h14v14H1V1z"/><path class="st1" d="M5.2628 5.3257v6.924H9.971l2.285 1.1078v-1.1078h1.2463V6.849l-1.6618-1.5233H5.2628z"/><path class="st2" d="M11.633 7.2645V5.395l1.8694 1.8695H11.633z"/><path class="st3" d="M13.087 7.2645v1.9387l-1.5233-1.9387h1.5233z"/><path class="st4" d="M11.7714 11.8343v.9l-1.731-.9h-4.362v-6.024h5.8853v1.5234h1.5233v4.5006h-1.3156zm.2077-5.8162l.9002.831h-.9v-.831zm-.1384-.6923H5.2628v6.924H9.971l2.285 1.1078v-1.1078h1.2463V6.849l-1.6617-1.5233z"/><path class="st4" d="M6.786 7.126h3.8776v.4154H6.786zM6.786 8.2338h4.9162v.4154h-4.916zM6.786 9.2724h4.9162v.4154h-4.916z"/><path class="st5" d="M1 1v14h14V1H1zm1 1h12v12H2V2z"/><g><path class="st6" d="M8.7003 3.8194c-.081-.069-.2026-.0592-.2715.022l-.1062.1246h-4.987l-.1063-.1247c-.069-.081-.1906-.0908-.2715-.022-.081.069-.091.1906-.022.2716l2.1397 2.5146V9.201c0 .071.039.1364.1018.17.0284.0153.0597.023.091.023.0372 0 .0745-.011.1067-.0325l1.1218-.748c.0536-.0355.0858-.0958.0858-.1602V6.6057L8.7223 4.091c.069-.081.059-.2028-.022-.2716zm0 0"/><path class="st6" d="M8.968 2.6424H2.69c-.1063 0-.1926.0862-.1926.1926v1.1226c0 .1063.0862.1926.1926.1926h6.2776c.1064 0 .1927-.0862.1927-.1926V2.835c0-.1064-.0863-.1926-.1926-.1926zm0 0"/><path class="st7" d="M3.3355 3.966l-.1062-.1247c-.069-.081-.1906-.0908-.2715-.022-.081.069-.091.1906-.022.2716l2.1397 2.5146V9.201c0 .071.039.1364.1018.17.0284.0153.0597.023.091.023.0372 0 .0745-.011.1067-.0325l.424-.2825V3.966H3.3354zm0 0"/><path class="st8" d="M8.7003 3.8194c-.081-.069-.2026-.0592-.2715.022l-.1062.1246H5.799v5.113l.6978-.4654c.0536-.0356.0858-.096.0858-.1603V6.6057L8.7223 4.091c.069-.081.059-.2028-.022-.2716zm0 0"/><path class="st6" d="M2.6902 2.6424c-.1063 0-.1926.0862-.1926.1926v1.1226c0 .1063.0862.1926.1926.1926H5.799V2.6424H2.69zm0 0"/><path class="st9" d="M8.968 2.6424H5.799v1.5078h3.169c.1063 0 .1926-.0862.1926-.1926V2.835c0-.1064-.0864-.1926-.1927-.1926zm0 0"/></g></svg>
