<svg xmlns="http://www.w3.org/2000/svg" viewBox="0 0 16 16"><style>.st0{fill:#FFFFFF;} .st1{fill:#999999;} .st2{fill:#EFEFEF;} .st3{opacity:0.65;fill:#FFFFFF;enable-background:new ;} .st4{opacity:0.2;enable-background:new ;} .st5{fill:#3AB29E;}</style><path class="st0" d="M1 1h14v14H1V1z"/><path class="st1" d="M1 1v14h14V1H1zm1 1h12v12H2V2z"/><path class="st0" d="M11 12H8l.75-1 .75-1 .75 1 .75 1z"/><ellipse class="st0" cx="11.5" cy="9.5" rx=".5" ry=".5"/><path class="st2" d="M8.5095 2.8377v4.0787h2.7735l1.346.6526v-.6526h.734V3.735l-.9787-.8973H8.5095z"/><path class="st3" d="M12.262 3.9797V2.8785l1.1012 1.1012H12.262z"/><path class="st4" d="M13.1184 3.9797v1.142l-.8973-1.142h.8974z"/><path class="st5" d="M12.3435 6.6716v.5303l-1.0197-.5304H8.7542V3.1232h3.467v.8973h.8972v2.651h-.775zm.1223-3.426l.5303.4894h-.5302v-.4895zm-.0815-.408H8.5095v4.0788h2.7735l1.346.6526v-.6526h.734V3.735l-.9787-.8973z"/><path class="st5" d="M9.4068 3.898h2.284v.2448H9.407zM9.4068 4.5507h2.896v.2447h-2.896zM9.4068 5.1625h2.896v.2447h-2.896z"/><g><path class="st2" d="M2.6368 2.8377v4.0787h2.7736l1.346.6526v-.6526h.734V3.735l-.9788-.8973H2.637z"/><path class="st3" d="M6.3892 3.9797V2.8785l1.1013 1.1012H6.3892z"/><path class="st4" d="M7.2458 3.9797v1.142l-.8973-1.142h.8973z"/><path class="st5" d="M6.4708 6.6716v.5303l-1.0196-.5304H2.8816V3.1232h3.467v.8973h.8972v2.651h-.775zm.1224-3.426l.5302.4894h-.5302v-.4895zm-.0816-.408H2.637v4.0788h2.7734l1.346.6526v-.6526h.734V3.735l-.9788-.8973z"/><path class="st5" d="M3.5342 3.898h2.284v.2448h-2.284zM3.5342 4.5507h2.896v.2447H3.534zM3.5342 5.1625h2.896v.2447H3.534z"/></g><g><path class="st2" d="M2.6368 8.431V12.51h2.7736l1.346.6525v-.6525h.734V9.3284l-.9788-.8973H2.637z"/><path class="st3" d="M6.3892 9.573V8.472L7.4905 9.573H6.3892z"/><path class="st4" d="M7.2458 9.573v1.142l-.8973-1.142h.8973z"/><path class="st5" d="M6.4708 12.265v.5303l-1.0196-.5303H2.8816V8.7166h3.467v.8973h.8972v2.651h-.775zm.1224-3.426l.5302.4894h-.5302V8.839zm-.0816-.408H2.637V12.51h2.7734l1.346.6525v-.6525h.734V9.3284l-.9788-.8973z"/><path class="st5" d="M3.5342 9.4915h2.284v.2447h-2.284zM3.5342 10.144h2.896v.2448H3.534zM3.5342 10.756h2.896v.2446H3.534z"/></g></svg>
