<!-- TODO: Update icon -->
<svg xmlns="http://www.w3.org/2000/svg" viewBox="0 0 477.87 477.87"><path d="M238.93 0C106.97 0 0 106.97 0 238.93s106.97 238.94 238.93 238.94 238.94-106.98 238.94-238.94C477.73 107.03 370.83.14 238.93 0zm0 443.73c-113.1 0-204.8-91.69-204.8-204.8s91.7-204.8 204.8-204.8 204.8 91.7 204.8 204.8C443.61 352 352 443.61 238.93 443.73z"/><circle cx="153.6" cy="204.8" r="34.13"/><circle cx="324.27" cy="204.8" r="34.13"/><path d="M304.29 296.61a17.07 17.07 0 00-24.84-2.7 68.7 68.7 0 01-81.03 0 17.07 17.07 0 10-21.37 26.59 101.9 101.9 0 00123.77 0 17.07 17.07 0 003.47-23.89z"/></svg>
