<svg xmlns="http://www.w3.org/2000/svg" width="485.211" height="485.21" viewBox="0 0 485.211 485.21"><path d="M394.235 333.585h-30.327c-33.495 0-60.653-27.158-60.653-60.654v-19.484c13.418-15.948 23.042-34.812 29.024-54.745.621-3.36 3.855-5.02 6.012-7.33 11.611-11.609 13.894-31.2 5.185-45.149-1.186-2.117-3.322-3.953-3.201-6.576 0-17.784.089-35.596-.023-53.366-.476-21.455-6.608-43.773-21.65-59.66-12.144-12.836-28.819-20.479-46.022-23.75-21.739-4.147-44.482-3.937-66.013 1.54-18.659 4.709-36.189 15.637-47.028 31.836-9.598 14.083-13.803 31.183-14.513 48.036-.266 18.094-.061 36.233-.116 54.371.413 3.631-2.667 6.088-4.058 9.094-8.203 14.881-4.592 35.155 8.589 45.978 3.344 2.308 3.97 6.515 5.181 10.142 5.748 17.917 15.282 34.487 27.335 48.925v20.138c0 33.496-27.157 60.654-60.651 60.654H90.978S36.014 348.743 0 424.56v30.327c0 16.759 13.564 30.321 30.327 30.321h424.562c16.759 0 30.322-13.562 30.322-30.321V424.56c-36.012-75.811-90.976-90.975-90.976-90.975z"/></svg>
